<svg width="81" height="48" viewBox="0 0 81 48" fill="none" xmlns="http://www.w3.org/2000/svg">
<path d="M9.43466 21.446V37H0.752131V0.636363H9.15057V14.7344H9.45241C10.0679 13.0535 11.0741 11.7396 12.4709 10.7926C13.8795 9.84564 15.6018 9.37216 17.6378 9.37216C19.5554 9.37216 21.2244 9.7983 22.6449 10.6506C24.0653 11.491 25.1662 12.6806 25.9474 14.2195C26.7405 15.7583 27.1312 17.5575 27.1193 19.6172V37H18.4368V21.3217C18.4486 19.8066 18.0698 18.6229 17.3004 17.7706C16.531 16.9183 15.4479 16.4922 14.0511 16.4922C13.1397 16.4922 12.3348 16.6934 11.6364 17.0959C10.9498 17.4865 10.4112 18.0488 10.0206 18.7827C9.64181 19.5166 9.4465 20.4044 9.43466 21.446ZM40.2701 37.5149C37.4055 37.5149 34.9434 36.929 32.8837 35.7571C30.8359 34.5734 29.2556 32.928 28.1429 30.821C27.0421 28.7022 26.4917 26.246 26.4917 23.4524C26.4917 20.647 27.0421 18.1908 28.1429 16.0838C29.2556 13.965 30.8359 12.3196 32.8837 11.1477C34.9434 9.96401 37.4055 9.37216 40.2701 9.37216C43.1346 9.37216 45.5908 9.96401 47.6387 11.1477C49.6983 12.3196 51.2786 13.965 52.3794 16.0838C53.4921 18.1908 54.0485 20.647 54.0485 23.4524C54.0485 26.246 53.4921 28.7022 52.3794 30.821C51.2786 32.928 49.6983 34.5734 47.6387 35.7571C45.5908 36.929 43.1346 37.5149 40.2701 37.5149ZM40.3233 30.9631C41.365 30.9631 42.2469 30.6435 42.9689 30.0043C43.691 29.3651 44.2414 28.4773 44.6202 27.3409C45.0108 26.2045 45.2061 24.8906 45.2061 23.3991C45.2061 21.884 45.0108 20.5582 44.6202 19.4219C44.2414 18.2855 43.691 17.3977 42.9689 16.7585C42.2469 16.1193 41.365 15.7997 40.3233 15.7997C39.2462 15.7997 38.3347 16.1193 37.589 16.7585C36.8551 17.3977 36.2928 18.2855 35.9022 19.4219C35.5234 20.5582 35.334 21.884 35.334 23.3991C35.334 24.8906 35.5234 26.2045 35.9022 27.3409C36.2928 28.4773 36.8551 29.3651 37.589 30.0043C38.3347 30.6435 39.2462 30.9631 40.3233 30.9631ZM53.4963 47.2273V9.72727H62.09V14.397H62.3564C62.7115 13.5684 63.2145 12.7694 63.8656 12C64.5285 11.2306 65.3689 10.6032 66.3869 10.1179C67.4167 9.62074 68.6478 9.37216 70.0801 9.37216C71.974 9.37216 73.7437 9.86932 75.389 10.8636C77.0462 11.858 78.3838 13.3909 79.4018 15.4624C80.4198 17.5339 80.9288 20.1735 80.9288 23.3814C80.9288 26.4709 80.4376 29.0573 79.4551 31.1406C78.4844 33.224 77.1705 34.7865 75.5133 35.8281C73.868 36.8698 72.0391 37.3906 70.0268 37.3906C68.6537 37.3906 67.4641 37.1657 66.4579 36.7159C65.4518 36.2661 64.6054 35.6742 63.9189 34.9403C63.2441 34.2064 62.7233 33.4193 62.3564 32.5788H62.1788V47.2273H53.4963ZM62.0012 23.3636C62.0012 24.8314 62.1966 26.1098 62.5872 27.1989C62.9896 28.2879 63.5637 29.1342 64.3095 29.7379C65.0671 30.3298 65.9726 30.6257 67.0261 30.6257C68.0914 30.6257 68.997 30.3298 69.7427 29.7379C70.4885 29.1342 71.0507 28.2879 71.4295 27.1989C71.8201 26.1098 72.0154 24.8314 72.0154 23.3636C72.0154 21.8958 71.8201 20.6233 71.4295 19.5462C71.0507 18.469 70.4885 17.6345 69.7427 17.0426C69.0088 16.4508 68.1033 16.1548 67.0261 16.1548C65.9608 16.1548 65.0552 16.4448 64.3095 17.0249C63.5637 17.6049 62.9896 18.4335 62.5872 19.5107C62.1966 20.5878 62.0012 21.8722 62.0012 23.3636Z" fill="white"/>
</svg>
