<svg width="52" height="52" viewBox="0 0 52 52" fill="none" xmlns="http://www.w3.org/2000/svg">
<rect width="52" height="52" rx="9" fill="#957DFF"/>
<mask id="mask0_28_7" style="mask-type:alpha" maskUnits="userSpaceOnUse" x="0" y="0" width="52" height="52">
<rect width="52" height="52" rx="9" fill="#3B3B3B"/>
</mask>
<g mask="url(#mask0_28_7)">
<path d="M-6.69189 81.0168C-8.2167 81.5416 -9.61632 82.3303 -11.1361 81.1398C-11.5187 80.8401 -12.0961 81.3381 -12.5693 81.5193C-14.2888 82.1781 -15.2337 82.0154 -16.0207 80.9217C-16.854 79.7637 -16.7235 78.5585 -15.5898 77.1878C-14.6357 76.0341 -13.5291 75.0198 -12.6423 73.7976C-11.2128 71.8275 -10.1857 69.6684 -9.5756 67.3376C-9.03768 65.2826 -8.02788 63.98 -5.78713 63.5515C-3.38811 63.0926 -2.59329 61.8336 -2.66618 59.4276C-2.72302 57.5516 -2.43549 55.6987 -1.48969 54.1C-0.728146 52.8127 -0.998743 52.1891 -2.18786 51.4773C-5.51645 49.485 -5.96329 45.6007 -4.82217 43.2056C-3.85581 41.1773 -2.32533 40.1097 -0.432631 40.3095C1.77892 40.5431 -5.00087 42.7077 -4.52601 44.8343C-4.29794 45.8557 -0.467738 49.371 0.180465 50.3814C0.451434 50.3028 5.08029 47.2594 5.29912 47.1504C7.66309 45.9731 10.216 45.7606 12.7928 45.6514C13.4327 45.6242 14.0792 45.5994 14.7081 45.49C19.0246 44.7388 21.3702 40.7356 20.0077 36.2622C19.2056 33.6288 18.6693 31.0496 19.6426 28.3452C20.0065 27.3343 19.1516 27.3305 18.4888 27.1144C13.5551 25.5056 9.379 22.9576 7.30273 17.8797C6.89422 16.8806 6.66541 15.8362 6.57192 14.7639C6.4392 13.2418 7.20221 12.3446 8.75062 12.1904C10.5514 12.011 12.3466 12.0903 14.1176 12.4403C15.1118 12.6368 15.596 12.4502 15.7157 11.3086C15.9292 9.27415 16.907 8.61073 18.9671 8.87233C24.7576 9.60764 30.2458 14.5701 31.6986 20.4921C31.9584 21.5511 32.3764 21.9815 33.4835 22.2343C36.7883 22.9888 39.4527 24.8115 41.1813 27.7773C42.0471 29.2627 43.0422 30.4667 44.6583 31.2133C46.2068 31.9286 46.476 33.0597 45.749 34.6369C44.7204 36.8683 42.9546 38.406 40.9082 39.6398C39.1441 40.7034 37.3064 41.6508 35.2562 42.0285C34.2287 42.2177 34.0189 42.7214 34.0335 43.7193C34.0658 45.9385 34.1441 49.9529 33.8244 52.1709C33.7006 53.0293 33.6302 53.8988 34.3648 53.8344C35.4717 53.7375 35.0604 56.6089 36.1587 56.6791C40.4794 56.955 44.7961 54.7035 43.147 58.718C42.1068 61.2501 40.2245 63.2264 38.4258 65.2354C36.9294 66.9067 35.3588 68.4744 33.0531 69.0122C31.4947 69.3756 29.9556 69.8615 28.6783 68.3284C28.2837 67.8547 27.7284 68.0384 27.2648 68.3227C25.8719 69.1771 24.3235 69.4388 22.7312 69.5794C21.464 69.6913 20.5613 69.1636 20.006 68.0673C19.4414 66.9526 19.6258 65.8938 20.4704 64.9825C21.0566 64.35 21.7754 63.887 22.5369 63.4753C23.5518 62.9267 24.4747 62.2537 25.1736 61.1305C24.2355 60.9145 23.3337 60.9861 22.7789 61.5063C21.1151 63.0665 19.1187 63.2729 17.0383 63.148C16.0038 63.0858 15.4847 63.4853 15.0813 64.3803C13.0855 68.8075 9.53259 71.0795 4.80229 71.6467C2.88708 71.8764 1.36768 72.5968 0.180466 74.2579C-1.68411 76.8667 -3.65352 79.4362 -6.69189 81.0168ZM37.985 38.0941C39.3198 37.3989 40.5958 36.618 41.6654 35.5417C42.6959 34.5047 42.5796 33.2183 41.2966 32.487C40.3468 31.9455 39.7552 31.1663 39.2909 30.2264C38.7213 29.0734 38.1198 27.952 37.1247 27.0736C33.9706 24.289 29.237 23.7045 25.2032 25.5803C24.296 26.0021 23.7278 26.5902 23.2719 27.492C21.8744 30.2567 21.9591 33.0611 22.9992 35.8379C24.7865 40.6099 21.9227 44.6911 18.6381 46.9629C16.5531 48.4051 14.0945 48.6547 11.6356 48.7431C9.55613 48.8178 7.55631 49.1853 5.7029 50.1727C2.82626 51.7053 1.07432 54.1575 0.59941 57.2991C0.299052 59.286 0.167756 61.2649 -0.578982 63.1698C-1.15234 64.6324 -2.27903 65.5375 -3.61986 65.8043C-5.33915 66.1465 -6.26431 67.0005 -6.72094 68.595C-7.4737 71.2235 -8.80949 73.539 -10.5112 75.6714C-11.0645 76.3647 -11.6044 77.1118 -12.0371 78.3344C-9.54056 76.9165 -7.56982 75.3588 -6.34685 73.1992C-4.70434 70.2987 -2.6269 68.2321 0.810309 67.8511C0.979786 67.8323 1.14833 67.7944 1.3138 67.7517C5.6257 66.641 8.85586 64.3499 9.97665 59.7771C10.1393 59.1135 10.2512 58.4367 10.3687 57.7629C10.4751 57.1535 10.7395 56.7016 11.4232 56.6791C12.0831 56.6573 12.612 56.9239 12.8442 57.5629C13.0034 58.0013 13.0841 58.473 13.1574 58.9365C13.2292 59.3913 13.3745 59.7638 13.8561 59.9123C15.8908 60.5394 17.9594 60.667 20.2409 60.4399C19.0836 59.4938 18.1538 58.6104 17.5829 57.4285C17.3348 56.915 17.1431 56.3549 17.6045 55.8696C18.0749 55.3748 18.6845 55.4352 19.2879 55.5925C19.7833 55.7217 20.0559 56.1179 20.3467 56.4858C21.3882 57.8032 22.7411 58.3078 24.4093 58.2024C25.8355 58.1124 27.1891 57.7973 28.5393 57.3519C29.356 57.0825 30.3256 56.9293 30.8401 57.8548C31.3663 58.8012 30.8242 59.5626 30.0964 60.2063C29.6166 60.6307 29.0845 61.0323 28.7231 61.5474C27.4667 63.3382 25.8358 64.6707 23.9378 65.7132C23.5818 65.9087 23.1653 66.0782 23.1476 66.6375C24.5068 66.5272 25.8029 66.2672 26.9481 65.5627C30.031 63.666 32.3206 60.9455 34.3648 58.042C35.5002 56.4294 34.4585 54.4071 32.4812 54.1057C31.2999 53.9257 30.0908 53.9354 28.9019 53.795C27.5089 53.6305 26.0778 53.9793 24.7108 53.4198C23.948 53.1075 23.8718 56.6735 23.9378 55.8696C24.0056 55.0446 24.5455 56.2717 25.1736 56.1727C26.5596 55.9543 27.8091 53.2198 29.1556 53.4198C30.3241 53.5934 30.7225 50.9376 30.8816 49.8387C31.0846 48.4364 31.2741 47.0469 31.0453 45.6231C30.8147 44.1879 30.6328 42.7433 30.4816 41.2974C30.3863 40.3859 30.7603 39.8701 31.7807 39.813C33.9001 39.6944 35.8929 39.0429 37.985 38.0941ZM17.1472 23.7105C19.0562 24.6249 20.9987 25.2591 23.1377 24.5517C22.2806 19.3251 14.258 13.723 9.976 15.2973C9.97449 15.4459 9.94517 15.6172 9.97688 15.7763C10.0436 16.1113 10.1176 16.4487 10.2318 16.7698C11.414 20.0939 13.8981 22.1462 17.1472 23.7105ZM24.9053 20.5268C25.8365 21.9681 26.3949 22.0745 28.7428 21.2431C28.7152 20.2396 28.3071 19.3365 27.8597 18.4748C26.1351 15.1535 23.461 13.0038 19.8179 12.0639C18.9579 11.842 18.6902 12.2342 18.7524 12.9697C18.828 13.8639 19.2842 14.5449 20.0103 15.1003C21.9243 16.5642 23.6028 18.2555 24.9053 20.5268ZM33.5719 65.4762C36.3643 63.3094 38.8344 60.8615 40.3275 57.588C40.7427 56.6777 41.046 55.6889 40.3494 54.7916C39.6309 53.8662 38.5973 53.7225 37.5105 53.8344C37.3681 54.3095 37.5559 54.6688 37.6631 55.0256C38.1749 56.7292 37.97 58.2738 36.8744 59.732C35.6388 61.3765 34.354 62.9632 32.7749 64.2938C32.2009 64.7776 31.6304 65.269 31.3413 66.0967C32.2166 66.3756 32.8014 65.9042 33.5719 65.4762ZM0.180466 46.3784C-0.750544 47.0785 -0.640079 45.5267 -0.70265 45.3243C-1.11351 43.9955 -0.229838 43.0884 -1.16043 43.3348C-2.08508 43.5796 -2.51114 44.5344 -2.23303 45.8839C-1.91937 47.4059 -0.992899 48.5705 0.0766106 49.6369C0.440233 49.9994 0.832899 50.1812 1.32594 49.8483C1.78757 49.5366 0.723938 49.2577 0.599411 48.7431C0.379403 47.8338 0.402728 47.4908 0.180466 46.3784Z" fill="white"/>
<path d="M32.7531 34.3363C30.5905 34.2775 28.8503 32.3328 29.1251 30.3995C29.1519 30.211 29.3028 30.0131 29.4476 29.8729C30.2974 29.0504 32.0377 28.7312 33.0599 29.323C35.2693 30.602 36.0152 32.0674 32.7531 34.3363Z" fill="white"/>
</g>
</svg>
